G04 start of page 3 for group 1 idx 1 *
G04 Title: (unknown), solder *
G04 Creator: pcb 4.0.2 *
G04 CreationDate: Mon Aug 16 01:27:01 2021 UTC *
G04 For: ndholmes *
G04 Format: Gerber/RS-274X *
G04 PCB-Dimensions (mil): 1600.00 1600.00 *
G04 PCB-Coordinate-Origin: lower left *
%MOIN*%
%FSLAX25Y25*%
%LNBOTTOM*%
%ADD23C,0.1285*%
%ADD22C,0.0200*%
%ADD21C,0.0360*%
%ADD20C,0.2937*%
%ADD19C,0.0250*%
%ADD18C,0.0001*%
G54D18*G36*
X21705Y158000D02*X74000D01*
Y2000D01*
X21705D01*
X21862Y2038D01*
X24142Y2982D01*
X26247Y4272D01*
X28124Y5876D01*
X29728Y7753D01*
X31018Y9858D01*
X31962Y12138D01*
X32539Y14539D01*
X32684Y17000D01*
X32539Y19461D01*
X31962Y21862D01*
X31018Y24142D01*
X29728Y26247D01*
X28124Y28124D01*
X26247Y29728D01*
X24142Y31018D01*
X21862Y31962D01*
X19461Y32539D01*
X17000Y32732D01*
X14539Y32539D01*
X12138Y31962D01*
X9858Y31018D01*
X7753Y29728D01*
X5876Y28124D01*
X4272Y26247D01*
X2982Y24142D01*
X2038Y21862D01*
X2000Y21705D01*
Y138295D01*
X2038Y138138D01*
X2982Y135858D01*
X4272Y133753D01*
X5876Y131876D01*
X7753Y130272D01*
X9858Y128982D01*
X12138Y128038D01*
X14539Y127461D01*
X17000Y127268D01*
X19461Y127461D01*
X21862Y128038D01*
X24142Y128982D01*
X26247Y130272D01*
X28124Y131876D01*
X29728Y133753D01*
X31018Y135858D01*
X31962Y138138D01*
X32539Y140539D01*
X32684Y143000D01*
X32539Y145461D01*
X31962Y147862D01*
X31018Y150142D01*
X29728Y152247D01*
X28124Y154124D01*
X26247Y155728D01*
X24142Y157018D01*
X21862Y157962D01*
X21705Y158000D01*
G37*
G36*
X113000Y101500D02*X142000D01*
Y91000D01*
X113000D01*
Y101500D01*
G37*
G36*
X112500Y51500D02*X141500D01*
Y41000D01*
X112500D01*
Y51500D01*
G37*
G36*
X97000Y110500D02*X133000D01*
Y57750D01*
X125177D01*
X125151Y57772D01*
X124775Y58003D01*
X124368Y58171D01*
X123939Y58274D01*
X123500Y58309D01*
X123061Y58274D01*
X122632Y58171D01*
X122225Y58003D01*
X121849Y57772D01*
X121514Y57486D01*
X121228Y57151D01*
X120997Y56775D01*
X120829Y56368D01*
X120726Y55939D01*
X120691Y55500D01*
X120726Y55061D01*
X120829Y54632D01*
X120997Y54225D01*
X121228Y53849D01*
X121514Y53514D01*
X121849Y53228D01*
X122225Y52997D01*
X122632Y52829D01*
X123061Y52726D01*
X123500Y52691D01*
X123939Y52726D01*
X124368Y52829D01*
X124775Y52997D01*
X125151Y53228D01*
X125177Y53250D01*
X133000D01*
Y39000D01*
X97000D01*
Y110500D01*
G37*
G36*
X86000Y123500D02*X94500D01*
Y38500D01*
X86000D01*
Y123500D01*
G37*
G54D19*X129000Y55500D02*X142000D01*
X147500Y61000D01*
X130000Y55500D02*X123500D01*
G54D20*X143000Y143000D03*
X17000D03*
X143000Y17000D03*
X17000D03*
G54D21*X60500Y101000D03*
X138000Y94000D03*
X133000D03*
Y98500D03*
X138000Y44000D03*
X133000D03*
X88000Y43000D03*
X92500D03*
X133000Y48500D03*
X104500Y50500D03*
X99500D03*
X147500Y61000D03*
X123500Y55500D03*
X110000Y107500D03*
X105000D03*
X100000D03*
X90000Y77000D03*
Y71500D03*
X103000Y83000D03*
X90500Y121000D03*
Y114500D03*
X27000Y111500D03*
Y116000D03*
X40500Y72000D03*
X35500D03*
X25000Y61000D03*
Y65500D03*
X20500D03*
X22500Y116000D03*
X60500Y85000D03*
X61000Y50500D03*
X56000D03*
X55500Y101000D03*
G54D22*G54D23*M02*
