M48
INCH
T26C0.020
T25C0.129
%
T26
X002050Y006550
X002250Y011600
X002500Y006550
X002500Y006100
X002700Y011600
X002700Y011150
X003550Y007200
X004050Y007200
X005550Y010100
X005600Y005050
X006050Y010100
X006050Y008500
X006100Y005050
X008800Y004300
X009000Y007700
X009000Y007150
X009050Y012100
X009050Y011450
X009250Y004300
X009950Y005050
X010000Y010750
X010300Y008300
X010450Y005050
X010500Y010750
X011000Y010750
X012350Y005550
X013300Y009850
X013300Y009400
X013300Y004850
X013300Y004400
X013800Y009400
X013800Y004400
X014750Y006100
T25
X001700Y014300
X001700Y001700
X014300Y014300
X014300Y001700
M30
