G04 start of page 10 for group -4015 idx -4015 *
G04 Title: (unknown), toppaste *
G04 Creator: pcb 4.0.2 *
G04 CreationDate: Mon Aug 16 01:27:01 2021 UTC *
G04 For: ndholmes *
G04 Format: Gerber/RS-274X *
G04 PCB-Dimensions (mil): 1600.00 1600.00 *
G04 PCB-Coordinate-Origin: lower left *
%MOIN*%
%FSLAX25Y25*%
%LNTOPPASTE*%
%ADD34C,0.0001*%
G54D34*G36*
X15949Y62087D02*Y59725D01*
X22051D01*
Y62087D01*
X15949D01*
G37*
G36*
Y58150D02*Y55788D01*
X22051D01*
Y58150D01*
X15949D01*
G37*
G36*
Y54212D02*Y51850D01*
X22051D01*
Y54212D01*
X15949D01*
G37*
G36*
Y50275D02*Y47913D01*
X22051D01*
Y50275D01*
X15949D01*
G37*
G36*
X201Y68386D02*Y63662D01*
X7287D01*
Y68386D01*
X201D01*
G37*
G36*
Y46338D02*Y41614D01*
X7287D01*
Y46338D01*
X201D01*
G37*
G36*
X56102Y74952D02*X50984D01*
Y69048D01*
X56102D01*
Y74952D01*
G37*
G36*
X49016D02*X43898D01*
Y69048D01*
X49016D01*
Y74952D01*
G37*
G36*
X115048Y117059D02*Y111941D01*
X120952D01*
Y117059D01*
X115048D01*
G37*
G36*
Y109973D02*Y104855D01*
X120952D01*
Y109973D01*
X115048D01*
G37*
G36*
X129516Y123452D02*X124398D01*
Y117548D01*
X129516D01*
Y123452D01*
G37*
G36*
X136602D02*X131484D01*
Y117548D01*
X136602D01*
Y123452D01*
G37*
G36*
X137949Y100275D02*Y97913D01*
X144051D01*
Y100275D01*
X137949D01*
G37*
G36*
Y104212D02*Y101850D01*
X144051D01*
Y104212D01*
X137949D01*
G37*
G36*
Y108150D02*Y105788D01*
X144051D01*
Y108150D01*
X137949D01*
G37*
G36*
Y112087D02*Y109725D01*
X144051D01*
Y112087D01*
X137949D01*
G37*
G36*
X152713Y96338D02*Y91614D01*
X159799D01*
Y96338D01*
X152713D01*
G37*
G36*
Y118386D02*Y113662D01*
X159799D01*
Y118386D01*
X152713D01*
G37*
G36*
X105559Y79952D02*X100441D01*
Y74048D01*
X105559D01*
Y79952D01*
G37*
G36*
X98473D02*X93355D01*
Y74048D01*
X98473D01*
Y79952D01*
G37*
G36*
X137949Y50275D02*Y47913D01*
X144051D01*
Y50275D01*
X137949D01*
G37*
G36*
Y54212D02*Y51850D01*
X144051D01*
Y54212D01*
X137949D01*
G37*
G36*
Y58150D02*Y55788D01*
X144051D01*
Y58150D01*
X137949D01*
G37*
G36*
Y62087D02*Y59725D01*
X144051D01*
Y62087D01*
X137949D01*
G37*
G36*
X152713Y46338D02*Y41614D01*
X159799D01*
Y46338D01*
X152713D01*
G37*
G36*
Y68386D02*Y63662D01*
X159799D01*
Y68386D01*
X152713D01*
G37*
G36*
X65500Y66500D02*Y64500D01*
X74000D01*
Y66500D01*
X65500D01*
G37*
G36*
Y61500D02*Y59500D01*
X74000D01*
Y61500D01*
X65500D01*
G37*
G36*
Y56500D02*Y54500D01*
X74000D01*
Y56500D01*
X65500D01*
G37*
G36*
Y51500D02*Y49500D01*
X74000D01*
Y51500D01*
X65500D01*
G37*
G36*
X86000D02*Y49500D01*
X94500D01*
Y51500D01*
X86000D01*
G37*
G36*
Y56500D02*Y54500D01*
X94500D01*
Y56500D01*
X86000D01*
G37*
G36*
Y61500D02*Y59500D01*
X94500D01*
Y61500D01*
X86000D01*
G37*
G36*
Y66500D02*Y64500D01*
X94500D01*
Y66500D01*
X86000D01*
G37*
G36*
X63000Y98200D02*X58000D01*
Y88200D01*
X63000D01*
Y98200D01*
G37*
G36*
X73000D02*X68000D01*
Y88200D01*
X73000D01*
Y98200D01*
G37*
G36*
X93000D02*X88000D01*
Y88200D01*
X93000D01*
Y98200D01*
G37*
G36*
X63000Y135800D02*X58000D01*
Y125800D01*
X63000D01*
Y135800D01*
G37*
G36*
X93000D02*X88000D01*
Y125800D01*
X93000D01*
Y135800D01*
G37*
G36*
X71602Y81452D02*X66484D01*
Y75548D01*
X71602D01*
Y81452D01*
G37*
G36*
X64516D02*X59398D01*
Y75548D01*
X64516D01*
Y81452D01*
G37*
G36*
X15949Y112087D02*Y109725D01*
X22051D01*
Y112087D01*
X15949D01*
G37*
G36*
Y108150D02*Y105788D01*
X22051D01*
Y108150D01*
X15949D01*
G37*
G36*
Y104212D02*Y101850D01*
X22051D01*
Y104212D01*
X15949D01*
G37*
G36*
Y100275D02*Y97913D01*
X22051D01*
Y100275D01*
X15949D01*
G37*
G36*
X201Y118386D02*Y113662D01*
X7287D01*
Y118386D01*
X201D01*
G37*
G36*
Y96338D02*Y91614D01*
X7287D01*
Y96338D01*
X201D01*
G37*
G36*
X111516Y70452D02*X106398D01*
Y64548D01*
X111516D01*
Y70452D01*
G37*
G36*
X118602D02*X113484D01*
Y64548D01*
X118602D01*
Y70452D01*
G37*
M02*
